# xmcd
#
# Track frame offsets: 
#        150
#        15888
#        35183
#        54792
#        70933
#        87986
#        102363
#        120588
#        135398
#        150688
#        163405
#        181232
#        198817
#        214509
#
# Disc length: 3085 seconds
#
# Revision: 0
# Processed by: cddbd v1.5.2PL0 Copyright (c) Steve Scherf et al.
# Submitted via: ExactAudioCopy v0.99pb5
#
DISCID=b20c0b0e
DTITLE=Fuego - Fuego si prietenii
DYEAR=2010
DGENRE=Misc
TTITLE0=Astazi este ziua mea
TTITLE1=Iubirea mea, eu stiu ca esti pe undeva
TTITLE2=Esti un vis
TTITLE3=Povestea noastra
TTITLE4=Viata noastra
TTITLE5=Du-ma acasa, mai tramvai!
TTITLE6=Dragoste, batu-te-ar vina!
TTITLE7=Cand stau gospodarii la masa (cu Mioara Velicu)
TTITLE8=Poftiti, oameni buni, la joc! (cu Mioara Velicu)
TTITLE9=Iubiti artistii! (cu Noni Razvan Ene)
TTITLE10=Balada strainatatii (cu Alina Alesis)
TTITLE11=Canta, mama, canta! (cu Irina Loghin)
TTITLE12=Taticul meu (cu Irina Loghin)
TTITLE13=Norocul meu
EXTD=
EXTT0=
EXTT1=
EXTT2=
EXTT3=
EXTT4=
EXTT5=
EXTT6=
EXTT7=
EXTT8=
EXTT9=
EXTT10=
EXTT11=
EXTT12=
EXTT13=
PLAYORDER=
